<svg viewBox="0 0 200 200" xmlns="http://www.w3.org/2000/svg">
  <defs>
    <linearGradient id="g2" x1="0%" y1="0%" x2="100%" y2="100%">
      <stop offset="0%" stop-color="#4361EE" />
      <stop offset="100%" stop-color="#3A0CA3" />
    </linearGradient>
    <filter id="shadow">
      <feDropShadow dx="0" dy="4" stdDeviation="4" flood-opacity="0.3"/>
    </filter>
  </defs>
  <rect x="5" y="5" width="190" height="190" rx="10" fill="#fff" stroke="#4361EE" stroke-width="3" filter="url(#shadow)"/>
  <circle cx="100" cy="100" r="85" fill="url(#g2)" />
  <circle cx="100" cy="70" r="30" fill="#fff" />
  <path d="M40,160 C40,110 160,110 160,160" fill="#fff" />
  <rect x="60" y="175" width="80" height="20" rx="5" fill="#4361EE" opacity="0.9"/>
  <text x="100" y="190" text-anchor="middle" font-family="Arial" font-size="14" fill="#fff" font-weight="bold">Gagandeep <svg viewBox="0 0 200 200" xmlns="http://www.w3.org/2000/svg">
  <defs>
    <linearGradient id="g2" x1="0%" y1="0%" x2="100%" y2="100%">
      <stop offset="0%" stop-color="#4361EE" />
      <stop offset="100%" stop-color="#3A0CA3" />
    </linearGradient>
    <filter id="shadow">
      <feDropShadow dx="0" dy="4" stdDeviation="4" flood-opacity="0.3"/>
    </filter>
  </defs>
  <rect x="5" y="5" width="190" height="190" rx="10" fill="#fff" stroke="#4361EE" stroke-width="3" filter="url(#shadow)"/>
  <circle cx="100" cy="100" r="85" fill="url(#g2)" />
  <circle cx="100" cy="70" r="30" fill="#fff" />
  <path d="M40,160 C40,110 160,110 160,160" fill="#fff" />
  <rect x="60" y="175" width="80" height="20" rx="5" fill="#4361EE" opacity="0.9"/>
  <text x="100" y="190" text-anchor="middle" font-family="Arial" font-size="14" fill="#fff" font-weight="bold">Gagandeep Kaur</text>
  <rect x="10" y="10" width="180" height="180" rx="10" fill="none" stroke="#4361EE" stroke-width="2" stroke-dasharray="5,5" />
  <circle cx="100" cy="100" r="90" fill="none" stroke="#3A0CA3" stroke-width="2" />
</svg>Kaur</text>
</svg> 